<svg width="15" height="15" viewBox="0 0 15 15" fill="none" xmlns="http://www.w3.org/2000/svg">
<path d="M8.87518 11.125H6.12518V11.25C6.12518 12.0094 6.74079 12.625 7.50018 12.625C8.25957 12.625 8.87518 12.0094 8.87518 11.25V11.125ZM3.62518 8.57666C3.62514 8.82052 3.52811 9.05402 3.35614 9.22607L3.11249 9.46973C3.0733 9.50891 3.05194 9.53069 3.03631 9.54736C3.02913 9.55503 3.0252 9.55914 3.02362 9.56104C3.01258 9.5764 3.00482 9.59443 3.00165 9.61377C3.00227 9.60994 3.00178 9.61247 3.00116 9.63232C3.00044 9.65525 3.00018 9.68568 3.00018 9.74121C3.00018 9.86728 3.00049 9.94113 3.0036 9.99609C3.00651 10.0476 3.01051 10.0518 3.00653 10.04C3.01895 10.0769 3.04848 10.1061 3.08563 10.1187C3.07375 10.1146 3.07773 10.1187 3.1286 10.1216C3.18301 10.1247 3.25609 10.125 3.38104 10.125H11.6193C11.7444 10.125 11.8177 10.1247 11.8723 10.1216C11.9234 10.1187 11.9272 10.1146 11.9152 10.1187C11.9515 10.1064 11.9806 10.0777 11.9933 10.04C11.9894 10.0518 11.9938 10.0475 11.9968 9.99609C11.9999 9.94112 12.0002 9.86726 12.0002 9.74121C12.0002 9.68579 11.9999 9.65509 11.9992 9.63232C11.9986 9.6128 11.9977 9.6103 11.9982 9.61377C11.9949 9.59333 11.9871 9.5755 11.9767 9.56104C11.975 9.55903 11.9714 9.5547 11.9645 9.54736C11.9487 9.53052 11.9271 9.50894 11.8879 9.46973L11.6442 9.22607C11.472 9.05381 11.3752 8.82025 11.3752 8.57666V6.25C11.3752 4.10989 9.64029 2.37499 7.50018 2.375C5.36008 2.37501 3.62518 4.1099 3.62518 6.25V8.57666ZM12.3752 8.54297L12.5949 8.7627C12.6576 8.82538 12.7303 8.8959 12.7892 8.97803C12.8911 9.11989 12.9572 9.2822 12.985 9.45166C13.0014 9.55126 13.0002 9.65107 13.0002 9.74121C13.0002 9.94181 13.0067 10.1653 12.9411 10.3599C12.829 10.692 12.5685 10.9534 12.235 11.0659C12.0895 11.115 11.9278 11.1238 11.7722 11.125H9.87518V11.25C9.87518 12.5617 8.81186 13.625 7.50018 13.625C6.1885 13.625 5.12518 12.5617 5.12518 11.25V11.125H3.22821C3.07272 11.1238 2.91134 11.115 2.76581 11.0659C2.43321 10.9537 2.17163 10.6928 2.05926 10.3599C1.99364 10.1653 2.00018 9.94182 2.00018 9.74121C2.00018 9.65206 1.99844 9.5515 2.01483 9.45166C2.04284 9.28108 2.10992 9.119 2.21112 8.97803C2.27001 8.89602 2.34187 8.82628 2.40545 8.7627L2.62518 8.54248V6.25C2.62518 3.55762 4.8078 1.37501 7.50018 1.375C10.1926 1.37499 12.3752 3.55761 12.3752 6.25V8.54297Z" fill="#9F9F9F"/>
</svg>
