<svg width="32" height="32" viewBox="0 0 32 32" fill="none" xmlns="http://www.w3.org/2000/svg">
<path d="M1.33301 26.6667V25.3333C1.33301 22.858 2.31634 20.484 4.06668 18.7337C5.81702 16.9833 8.19099 16 10.6663 16C13.1417 16 15.5157 16.9833 17.266 18.7337C19.0163 20.484 19.9997 22.858 19.9997 25.3333V26.6667" stroke="white" stroke-width="1.5" stroke-linecap="round"/>
<path d="M17.333 18.6667C17.333 16.8986 18.0354 15.2029 19.2856 13.9526C20.5359 12.7024 22.2316 12 23.9997 12C24.8752 12 25.7421 12.1724 26.5509 12.5075C27.3597 12.8425 28.0947 13.3336 28.7137 13.9526C29.3328 14.5717 29.8238 15.3066 30.1589 16.1154C30.4939 16.9243 30.6663 17.7912 30.6663 18.6667V19.3333" stroke="white" stroke-width="1.5" stroke-linecap="round"/>
<path d="M10.6663 16C12.0808 16 13.4374 15.4381 14.4376 14.4379C15.4378 13.4377 15.9997 12.0812 15.9997 10.6667C15.9997 9.25218 15.4378 7.89562 14.4376 6.89543C13.4374 5.89524 12.0808 5.33333 10.6663 5.33333C9.25185 5.33333 7.8953 5.89524 6.8951 6.89543C5.89491 7.89562 5.33301 9.25218 5.33301 10.6667C5.33301 12.0812 5.89491 13.4377 6.8951 14.4379C7.8953 15.4381 9.25185 16 10.6663 16ZM23.9997 12C25.0605 12 26.078 11.5786 26.8281 10.8284C27.5782 10.0783 27.9997 9.06087 27.9997 8C27.9997 6.93913 27.5782 5.92172 26.8281 5.17157C26.078 4.42143 25.0605 4 23.9997 4C22.9388 4 21.9214 4.42143 21.1712 5.17157C20.4211 5.92172 19.9997 6.93913 19.9997 8C19.9997 9.06087 20.4211 10.0783 21.1712 10.8284C21.9214 11.5786 22.9388 12 23.9997 12Z" stroke="white" stroke-width="1.5" stroke-linecap="round" stroke-linejoin="round"/>
</svg>
