<svg width="26" height="26" viewBox="0 0 26 26" fill="none" xmlns="http://www.w3.org/2000/svg">
<g clip-path="url(#clip0_156_1764)">
<path d="M3.71461 24.4509H9.42842V16.586C9.42842 16.2317 9.54862 15.9348 9.78902 15.6952C10.0284 15.4546 10.325 15.3343 10.6789 15.3343H15.3218C15.6756 15.3343 15.9728 15.4546 16.2132 15.6952C16.4525 15.9348 16.5722 16.2317 16.5722 16.586V24.4509H22.286V10.9859C22.286 10.8268 22.2515 10.6822 22.1824 10.5521C22.1132 10.422 22.0188 10.3084 21.8991 10.2113L13.5668 3.92493C13.4079 3.78654 13.2191 3.71735 13.0003 3.71735C12.7816 3.71735 12.5933 3.78654 12.4354 3.92493L4.10152 10.2113C3.98287 10.3104 3.88846 10.424 3.8183 10.5521C3.74814 10.6802 3.71358 10.8247 3.71461 10.9859V24.4509ZM2.16699 24.4509V10.9859C2.16699 10.5893 2.25572 10.2139 2.43318 9.85964C2.61064 9.50541 2.85517 9.21365 3.16675 8.98438L11.5007 2.66704C11.9371 2.33346 12.4354 2.16667 12.9957 2.16667C13.5559 2.16667 14.0573 2.33346 14.5 2.66704L22.8339 8.98284C23.1465 9.21211 23.391 9.50438 23.5675 9.85964C23.7449 10.2139 23.8337 10.5893 23.8337 10.9859V24.4509C23.8337 24.866 23.6794 25.228 23.3709 25.5368C23.0624 25.8456 22.7008 26 22.286 26H16.2751C15.9202 26 15.623 25.8802 15.3837 25.6406C15.1443 25.4 15.0246 25.1025 15.0246 24.7483V16.8849H10.976V24.7483C10.976 25.1036 10.8564 25.401 10.617 25.6406C10.3776 25.8802 10.081 26 9.72711 26H3.71461C3.29985 26 2.93822 25.8456 2.62973 25.5368C2.32124 25.228 2.16699 24.866 2.16699 24.4509Z" fill="white"/>
</g>
<defs>
<clipPath id="clip0_156_1764">
<rect width="26" height="26" fill="white"/>
</clipPath>
</defs>
</svg>
