<svg width="33" height="31" viewBox="0 0 33 31" fill="none" xmlns="http://www.w3.org/2000/svg">
<path d="M16.056 13.801C14.4879 13.801 13.1449 13.2489 12.0269 12.1446C10.9088 11.0404 10.3505 9.7146 10.3517 8.16718C10.353 6.61977 10.9114 5.2927 12.0269 4.18597C13.1424 3.07924 14.4854 2.52901 16.056 2.53527C17.6265 2.54153 18.9695 3.09239 20.085 4.18785C21.2005 5.28331 21.7589 6.61038 21.7602 8.16906C21.7614 9.72774 21.2031 11.0536 20.085 12.1465C18.967 13.2395 17.624 13.7897 16.056 13.801ZM2.74609 25.431V24.2892C2.74609 23.5143 2.97426 22.7894 3.4306 22.1146C3.88821 21.4385 4.50299 20.9139 5.27497 20.5409C7.0699 19.6908 8.86609 19.0535 10.6636 18.6291C12.4598 18.2035 14.2572 17.9906 16.056 17.9906C17.8547 17.9906 19.6528 18.2035 21.4502 18.6291C23.2477 19.0548 25.0426 19.692 26.835 20.5409C27.6083 20.9139 28.2231 21.4385 28.6794 22.1146C29.137 22.7894 29.3658 23.5143 29.3658 24.2892V25.431C29.3658 25.9819 29.1763 26.4451 28.7973 26.8207C28.4183 27.1937 27.9493 27.3803 27.3902 27.3803H4.72356C4.16454 27.3803 3.69553 27.1931 3.31652 26.8188C2.9375 26.4445 2.74736 25.9831 2.74609 25.431ZM4.6475 25.5024H27.4644V24.2873C27.4644 23.8717 27.3281 23.4805 27.0556 23.1136C26.7843 22.7481 26.4085 22.4388 25.9281 22.1859C24.3638 21.4373 22.7502 20.8639 21.0871 20.4658C19.424 20.0676 17.7469 19.8686 16.056 19.8686C14.365 19.8686 12.6879 20.0676 11.0248 20.4658C9.36173 20.8639 7.74807 21.4373 6.18384 22.1859C5.70215 22.4388 5.32631 22.7481 5.05631 23.1136C4.78377 23.4805 4.6475 23.8723 4.6475 24.2892V25.5024ZM16.056 11.923C17.1017 11.923 17.9973 11.555 18.7426 10.8188C19.488 10.0827 19.86 9.19817 19.8588 8.1653C19.8575 7.13244 19.4855 6.24856 18.7426 5.51367C17.9998 4.77877 17.1043 4.4107 16.056 4.40944C15.0076 4.40819 14.1127 4.77627 13.3712 5.51367C12.6296 6.25107 12.2569 7.13495 12.2531 8.1653C12.2493 9.19566 12.622 10.0802 13.3712 10.8188C14.1203 11.5575 15.0152 11.9249 16.056 11.9212" fill="white"/>
</svg>
