<svg width="33" height="33" viewBox="0 0 33 33" fill="none" xmlns="http://www.w3.org/2000/svg">
<path fill-rule="evenodd" clip-rule="evenodd" d="M16.5 6.24037C16.428 6.36595 16.3447 6.51414 16.2501 6.68493L16.127 6.90595L16.0981 6.95619C16.0002 7.13702 15.8369 7.43591 15.5644 7.64312C15.2869 7.85409 14.9516 7.92693 14.7569 7.96963L14.7017 7.98093L14.4631 8.03493C14.242 8.08516 14.0625 8.12535 13.9105 8.16428C14.0097 8.28609 14.1391 8.4393 14.3073 8.63647L14.4706 8.82735L14.5083 8.87005C14.6439 9.02702 14.8624 9.27819 14.9641 9.6047C15.0646 9.92619 15.0294 10.2577 15.0081 10.4662L15.0018 10.5252L14.9767 10.7801L14.924 11.3578C15.0558 11.3 15.204 11.2322 15.3811 11.1506L15.6059 11.0476L15.6561 11.0225C15.8369 10.9384 16.1496 10.7902 16.5 10.7902C16.8504 10.7902 17.1631 10.9384 17.3439 11.0238L17.3941 11.0476L17.6189 11.1506C17.7939 11.2327 17.9463 11.3017 18.076 11.3578L18.0233 10.7801L17.9982 10.5252L17.9919 10.4662C17.9706 10.2565 17.9354 9.92619 18.0359 9.6047C18.1363 9.27819 18.3561 9.02702 18.4917 8.87005L18.5294 8.82735L18.6927 8.63647C18.8609 8.4393 18.9903 8.28609 19.0895 8.16428C18.9375 8.1266 18.758 8.08516 18.5369 8.03493L18.2983 7.98093L18.2431 7.96837C18.0484 7.92693 17.7131 7.85409 17.4356 7.64186C17.1631 7.43591 16.9998 7.13702 16.9019 6.95744L16.873 6.90595L16.7499 6.68493C16.6561 6.51414 16.5728 6.36595 16.5 6.24037ZM15.2618 4.6907C15.4778 4.40814 15.8696 4 16.5 4C17.1304 4 17.5222 4.40814 17.7382 4.6907C17.9454 4.95944 18.1527 5.33242 18.3661 5.71544L18.395 5.76693L18.5181 5.98921L18.5897 6.11479L18.714 6.14367L18.9526 6.19767L19.0129 6.21023C19.4235 6.30442 19.8329 6.39609 20.1469 6.52042C20.4935 6.6573 20.9632 6.92228 21.1453 7.50623C21.3236 8.07763 21.0988 8.56237 20.9029 8.87507C20.7208 9.16391 20.4445 9.4854 20.162 9.81567L20.1243 9.85963L19.961 10.0518L19.858 10.1736C19.8606 10.2188 19.8668 10.2715 19.8731 10.3431L19.8982 10.598L19.9033 10.6558C19.946 11.0979 19.9874 11.5248 19.9723 11.8664C19.9573 12.2256 19.8719 12.7681 19.3846 13.136C18.8823 13.5178 18.3297 13.4349 17.9781 13.3332C17.6541 13.2415 17.2711 13.0645 16.8855 12.8874L16.8315 12.8623L16.6055 12.758L16.5 12.7091L16.3933 12.7593L16.1685 12.8623L16.1132 12.8874C15.7289 13.0645 15.3472 13.2415 15.0219 13.3332C14.6703 13.4337 14.1177 13.5178 13.6154 13.136C13.1294 12.7681 13.0427 12.2256 13.0277 11.8677C13.0126 11.5248 13.0528 11.0979 13.0967 10.6558L13.1018 10.598L13.1269 10.3431L13.1432 10.1736L13.039 10.0518L12.8757 9.85963L12.838 9.81567C12.5555 9.4854 12.2792 9.16265 12.0971 8.87381C11.9012 8.56237 11.6764 8.07763 11.8547 7.50498C12.0356 6.92353 12.5065 6.6573 12.8531 6.52042C13.1671 6.39609 13.5765 6.30442 13.9871 6.21149L14.0461 6.19893L14.286 6.14367L14.4116 6.11479L14.4819 5.98921L14.605 5.76693L14.6339 5.71544C14.8473 5.33242 15.0546 4.95944 15.2618 4.6907ZM15.1827 14.0465H17.8173C18.6525 14.0465 19.372 14.0465 19.9485 14.1244C20.5663 14.2073 21.1578 14.3944 21.6375 14.8741C22.1173 15.3538 22.3044 15.9453 22.3873 16.5632C22.4651 17.1396 22.4651 17.8592 22.4651 18.6943V21.7911C22.6711 21.7283 22.8833 21.6881 23.098 21.6593C23.6745 21.5814 24.394 21.5814 25.2292 21.5814H25.3522C26.1873 21.5814 26.9069 21.5814 27.4833 21.6593C28.1012 21.7421 28.6927 21.9293 29.1724 22.409C29.6521 22.8887 29.8393 23.4802 29.9221 24.098C30 24.6745 30 25.394 30 26.2292V30.0581C30 30.3079 29.9008 30.5475 29.7241 30.7241C29.5475 30.9008 29.3079 31 29.0581 31C28.8083 31 28.5688 30.9008 28.3921 30.7241C28.2155 30.5475 28.1163 30.3079 28.1163 30.0581V26.2907C28.1163 25.3765 28.1138 24.7837 28.056 24.3492C28.0007 23.9411 27.9116 23.813 27.84 23.7414C27.7684 23.6698 27.6403 23.5807 27.2322 23.5254C26.7964 23.4676 26.2049 23.4651 25.2907 23.4651C24.3765 23.4651 23.7837 23.4676 23.3492 23.5254C22.9411 23.5807 22.813 23.6698 22.7414 23.7414C22.6698 23.813 22.5807 23.9411 22.5254 24.3492C22.4676 24.785 22.4651 25.3765 22.4651 26.2907V30.0581C22.4651 30.3079 22.3659 30.5475 22.1893 30.7241C22.0126 30.9008 21.7731 31 21.5233 31C21.2735 31 21.0339 30.9008 20.8573 30.7241C20.6806 30.5475 20.5814 30.3079 20.5814 30.0581V18.7558C20.5814 17.8416 20.5789 17.2488 20.5211 16.8143C20.4659 16.4062 20.3767 16.2781 20.3051 16.2065C20.2335 16.1349 20.1054 16.0458 19.6973 15.9905C19.2615 15.9327 18.67 15.9302 17.7558 15.9302H15.2442C14.33 15.9302 13.7372 15.9327 13.3027 15.9905C12.8946 16.0458 12.7665 16.1349 12.6949 16.2065C12.6233 16.2781 12.5341 16.4062 12.4789 16.8143C12.4211 17.2501 12.4186 17.8416 12.4186 18.7558V30.0581C12.4186 30.3079 12.3194 30.5475 12.1427 30.7241C11.9661 30.9008 11.7265 31 11.4767 31C11.2269 31 10.9874 30.9008 10.8107 30.7241C10.6341 30.5475 10.5349 30.3079 10.5349 30.0581C10.5349 29.1439 10.5324 28.5512 10.4746 28.1167C10.4193 27.7085 10.3302 27.5804 10.2586 27.5088C10.187 27.4373 10.0589 27.3481 9.65079 27.2928C9.21502 27.2351 8.62353 27.2326 7.7093 27.2326C6.79507 27.2326 6.20233 27.2351 5.76781 27.2928C5.35967 27.3481 5.23158 27.4373 5.16 27.5088C5.08842 27.5804 4.99926 27.7085 4.944 28.1167C4.88623 28.5524 4.88372 29.1439 4.88372 30.0581C4.88372 30.3079 4.78449 30.5475 4.60786 30.7241C4.43122 30.9008 4.19166 31 3.94186 31C3.69206 31 3.4525 30.9008 3.27586 30.7241C3.09923 30.5475 3 30.3079 3 30.0581V29.9953C3 29.1615 3 28.4419 3.07786 27.8655C3.16074 27.2476 3.34786 26.6561 3.82758 26.1764C4.3073 25.6967 4.90005 25.5096 5.51665 25.4267C6.09307 25.3488 6.81265 25.3488 7.64777 25.3488H7.77084C8.60595 25.3488 9.32553 25.3488 9.90195 25.4267C10.1171 25.4543 10.3281 25.4983 10.5349 25.5586V18.6943C10.5349 17.8592 10.5349 17.1396 10.6127 16.5632C10.6956 15.9453 10.8827 15.3538 11.3625 14.8741C11.8422 14.3944 12.4349 14.2073 13.0515 14.1244C13.628 14.0465 14.3475 14.0465 15.1827 14.0465Z" fill="white"/>
</svg>
