<svg width="132" height="132" viewBox="0 0 132 132" fill="none" xmlns="http://www.w3.org/2000/svg">
<circle cx="66" cy="66" r="66" fill="#4D4D4D"/>
<g filter="url(#filter0_d_247_4568)">
<path d="M67.5 24C88.2107 24 105 40.7893 105 61.5C105 82.2107 88.2107 99 67.5 99C66.237 99 64.9887 98.9364 63.7578 98.8145L54.7119 105.173C51.5628 107.386 47.1986 105.36 46.8564 101.526L46.0273 92.2451C36.3378 85.4652 30 74.2235 30 61.5C30.0001 40.7893 46.7893 24 67.5 24Z" fill="#FED766"/>
<rect x="53.3027" y="50.6312" width="11.6511" height="19.9733" rx="5.82555" fill="white"/>
<rect x="81.5967" y="50.6312" width="11.6511" height="19.9733" rx="5.82555" fill="white"/>
</g>
<defs>
<filter id="filter0_d_247_4568" x="23" y="24" width="85" height="99.0884" filterUnits="userSpaceOnUse" color-interpolation-filters="sRGB">
<feFlood flood-opacity="0" result="BackgroundImageFix"/>
<feColorMatrix in="SourceAlpha" type="matrix" values="0 0 0 0 0 0 0 0 0 0 0 0 0 0 0 0 0 0 127 0" result="hardAlpha"/>
<feOffset dx="-2" dy="12"/>
<feGaussianBlur stdDeviation="2.5"/>
<feComposite in2="hardAlpha" operator="out"/>
<feColorMatrix type="matrix" values="0 0 0 0 0 0 0 0 0 0 0 0 0 0 0 0 0 0 0.25 0"/>
<feBlend mode="normal" in2="BackgroundImageFix" result="effect1_dropShadow_247_4568"/>
<feBlend mode="normal" in="SourceGraphic" in2="effect1_dropShadow_247_4568" result="shape"/>
</filter>
</defs>
</svg>
