<svg width="22" height="17" viewBox="0 0 22 17" fill="none" xmlns="http://www.w3.org/2000/svg">
<path d="M0.75 16.2045V15.2954C0.75 13.6077 1.42044 11.989 2.61384 10.7956C3.80724 9.60222 5.42583 8.93176 7.11355 8.93176C8.80126 8.93176 10.4199 9.60222 11.6133 10.7956C12.8067 11.989 13.4771 13.6077 13.4771 15.2954V16.2045" stroke="#2AB7CA" stroke-width="1.5" stroke-linecap="round"/>
<path d="M11.6592 10.75C11.6592 9.54451 12.1381 8.38836 12.9905 7.53592C13.8429 6.68348 14.9991 6.20459 16.2046 6.20459C16.8015 6.20459 17.3925 6.32216 17.944 6.55059C18.4955 6.77902 18.9966 7.11384 19.4186 7.53592C19.8407 7.95801 20.1755 8.45909 20.404 9.01057C20.6324 9.56205 20.75 10.1531 20.75 10.75V11.2046" stroke="#2AB7CA" stroke-width="1.5" stroke-linecap="round"/>
<path d="M7.11385 8.93181C8.07826 8.93181 9.00317 8.5487 9.68511 7.86675C10.3671 7.1848 10.7502 6.25987 10.7502 5.29545C10.7502 4.33103 10.3671 3.40611 9.68511 2.72416C9.00317 2.04221 8.07826 1.65909 7.11385 1.65909C6.14944 1.65909 5.22453 2.04221 4.54259 2.72416C3.86065 3.40611 3.47754 4.33103 3.47754 5.29545C3.47754 6.25987 3.86065 7.1848 4.54259 7.86675C5.22453 8.5487 6.14944 8.93181 7.11385 8.93181ZM16.2046 6.20454C16.9279 6.20454 17.6216 5.9172 18.1331 5.40574C18.6445 4.89428 18.9319 4.20059 18.9319 3.47727C18.9319 2.75395 18.6445 2.06026 18.1331 1.5488C17.6216 1.03734 16.9279 0.75 16.2046 0.75C15.4813 0.75 14.7876 1.03734 14.2762 1.5488C13.7647 2.06026 13.4774 2.75395 13.4774 3.47727C13.4774 4.20059 13.7647 4.89428 14.2762 5.40574C14.7876 5.9172 15.4813 6.20454 16.2046 6.20454Z" stroke="#2AB7CA" stroke-width="1.5" stroke-linecap="round" stroke-linejoin="round"/>
</svg>
