<svg width="60" height="57" viewBox="0 0 60 57" fill="none" xmlns="http://www.w3.org/2000/svg">
<path d="M29.8209 24.3989C34.8985 24.3989 39.4991 26.0797 42.8743 28.4301C46.0814 30.6667 48.7978 33.9904 48.7978 37.5662C48.7978 39.5289 47.9601 41.1555 46.6398 42.3646C45.3982 43.5059 43.777 44.246 42.1071 44.7503C38.7698 45.7615 34.3753 46.0868 29.8209 46.0868C25.2664 46.0868 20.8719 45.7615 17.5347 44.7503C15.8647 44.246 14.2435 43.5059 12.9992 42.3646C11.6844 41.1582 10.844 39.5316 10.844 37.5689C10.844 33.9931 13.5604 30.6694 16.7675 28.4328C20.1426 26.0797 24.7432 24.3989 29.8209 24.3989ZM48.7978 27.1099C51.628 27.1099 54.1981 28.0452 56.0985 29.3681C57.8335 30.5799 59.6417 32.5942 59.6417 35.0504C59.6417 36.4519 59.0318 37.615 58.1236 38.4472C57.294 39.209 56.2693 39.6563 55.334 39.9383C54.0598 40.3232 52.5552 40.5211 50.9937 40.6079C51.3244 39.6726 51.5088 38.656 51.5088 37.5662C51.5088 33.4048 48.9089 29.8697 46 27.4162C46.9188 27.2133 47.8569 27.1105 48.7978 27.1099ZM10.844 27.1099C11.8145 27.1135 12.7471 27.2156 13.6417 27.4162C10.7355 29.8697 8.13296 33.4048 8.13296 37.5662C8.13296 38.656 8.31731 39.6726 8.64805 40.6079C7.08652 40.5211 5.58463 40.3232 4.30776 39.9383C3.37247 39.6563 2.34772 39.209 1.51544 38.4472C1.03838 38.0198 0.656828 37.4966 0.395698 36.9118C0.134569 36.3269 -0.000265321 35.6936 3.91961e-07 35.0531C3.91961e-07 32.5996 1.80552 30.5827 3.54326 29.3708C5.69269 27.8973 8.23791 27.1091 10.844 27.1099ZM47.4423 10.844C49.2398 10.844 50.9637 11.558 52.2347 12.829C53.5057 14.1 54.2197 15.8239 54.2197 17.6214C54.2197 19.4189 53.5057 21.1428 52.2347 22.4138C50.9637 23.6848 49.2398 24.3989 47.4423 24.3989C45.6448 24.3989 43.9209 23.6848 42.6499 22.4138C41.3789 21.1428 40.6648 19.4189 40.6648 17.6214C40.6648 15.8239 41.3789 14.1 42.6499 12.829C43.9209 11.558 45.6448 10.844 47.4423 10.844ZM12.1994 10.844C13.9969 10.844 15.7208 11.558 16.9918 12.829C18.2629 14.1 18.9769 15.8239 18.9769 17.6214C18.9769 19.4189 18.2629 21.1428 16.9918 22.4138C15.7208 23.6848 13.9969 24.3989 12.1994 24.3989C10.4019 24.3989 8.67807 23.6848 7.40705 22.4138C6.13603 21.1428 5.42198 19.4189 5.42198 17.6214C5.42198 15.8239 6.13603 14.1 7.40705 12.829C8.67807 11.558 10.4019 10.844 12.1994 10.844ZM29.8209 0C32.6969 0 35.4551 1.14248 37.4887 3.17612C39.5223 5.20975 40.6648 7.96796 40.6648 10.844C40.6648 13.7199 39.5223 16.4781 37.4887 18.5118C35.4551 20.5454 32.6969 21.6879 29.8209 21.6879C26.9449 21.6879 24.1867 20.5454 22.153 18.5118C20.1194 16.4781 18.9769 13.7199 18.9769 10.844C18.9769 7.96796 20.1194 5.20975 22.153 3.17612C24.1867 1.14248 26.9449 0 29.8209 0Z" fill="#9F9F9F"/>
</svg>
